<?xml version="1.0" encoding="UTF-8"?><svg id="Ebene_2" xmlns="http://www.w3.org/2000/svg" viewBox="0 0 514 521.04"><defs><style>.cls-1{fill:#1d1d1b;}</style></defs><g id="Ebene_1-2"><path class="cls-1" d="M266.43,0c.5.79,1.82.48,2.63.49,41.56.43,85.14,13.37,120.99,33.97,61.97,35.61,108.67,97.35,123.94,167.53h-60.21c-4.29-11.35-8.36-22.77-13.9-33.59C383.04,57.53,238.6,24.16,138.86,100.08c-103.48,78.77-106.35,233.97-5.56,316.35,105.01,85.82,262.51,44.92,313.75-79.65,2.47-6,4.38-12.18,6.73-18.22h60.21c-22.18,104.22-112.93,186.57-218.61,200l-25.6,2.47h-18.23l-28.96-2.95C102.8,500.37,11.67,402.4,1.12,281.87c-.25-2.84.27-6.11-.96-8.87.36-8.19-.49-16.8,0-24.95C8.43,110.39,117.13,4.4,254.92,0h11.51Z"/><path class="cls-1" d="M255.3,133.04c93.24-5.58,152.64,79.73,125.08,166.82-35.91,113.49-202.38,110.36-233.27-5.65-20.49-76.96,25.81-156.24,108.19-161.17ZM258.66,180.06c-81.99,6.42-80.08,150.08-.14,155.78,97.07,6.92,96.67-163.34.14-155.78Z"/></g></svg>